<?xml version="1.0" encoding="UTF-8"?>
<svg id="Camada_1" data-name="Camada 1" xmlns="http://www.w3.org/2000/svg" viewBox="0 0 1000 693.63">
  <defs>
    <style>
      .cls-1 {
        fill: #fff;
      }
    </style>
  </defs>
  <path class="cls-1" d="M1000,347.24c0-.14-.02-.28-.02-.43s.02-.28.02-.42c0-7.97-.37-15.85-.9-23.69-.02-.27-.04-.54-.06-.81C986.64,144.67,840.99,4.27,661.58.2v-.2h-323.17v.2C159.21,4.26,13.68,144.36,1,321.3c-.03.41-.06.82-.09,1.24-.54,7.89-.91,15.83-.91,23.85,0,.14.02.28.02.43s-.02.28-.02.42c0,7.97.37,15.85.9,23.69.02.27.04.54.06.81,12.4,177.22,158.05,317.62,337.46,321.69v.2h323.17v-.2c179.21-4.06,324.73-144.16,337.42-321.1.03-.41.06-.82.09-1.24.54-7.89.91-15.83.91-23.85ZM653.05,592.15h-305.9c-156.47,0-288.71-103.45-332.23-245.66C58.65,204.62,190.73,101.48,346.95,101.48h305.9c156.47,0,288.71,103.45,332.23,245.66-43.73,141.87-175.81,245-332.03,245Z"/>
  <path class="cls-1" d="M906.28,342.64c-63.42-80.67-161.9-132.49-272.48-132.49v.17c73.08,0,132.32,59.24,132.32,132.32s-59.24,132.32-132.32,132.32v.17c110.58,0,209.06-51.82,272.48-132.49Z"/>
  <path class="cls-1" d="M93.44,342.64c63.42-80.67,161.9-132.49,272.48-132.49v.17c-73.08,0-132.32,59.24-132.32,132.32,0,73.08,59.24,132.32,132.32,132.32v.17c-110.58,0-209.06-51.82-272.48-132.49Z"/>
  <path class="cls-1" d="M500.02,475.51c.12-73.38,59.62-132.82,133.03-132.83-73.14-.01-132.44-59.04-132.99-132.05-.03,0-.05,0-.08,0-.55,72.69-59.35,131.48-132.05,132,0,.03,0,.06,0,.09,72.97.52,131.98,59.72,132.1,132.79Z"/>
</svg>